# Blender 4.0.2
# www.blender.org
mtllib hat_cowboy.mtl
o hat_cowboy
v 0.000000 0.505049 -0.381991
v 0.000000 0.487177 0.425971
v 0.171561 0.511774 0.365394
v 0.283537 0.546504 0.209098
v 0.318033 0.564495 0.000006
v 0.272303 0.556889 -0.189903
v 0.163011 0.525747 -0.328238
v 0.000000 0.106236 -0.526244
v 0.000000 0.055422 0.578432
v 0.238726 0.093411 0.487202
v 0.411365 0.141230 0.280429
v 0.460905 0.163364 0.000045
v 0.398443 0.155092 -0.278575
v 0.235548 0.128622 -0.452048
v 0.000000 0.086172 -0.873904
v 0.000000 -0.003829 0.897196
v 0.388245 0.070059 0.771328
v 0.673290 0.187316 0.446423
v 0.775264 0.236693 0.001053
v 0.673285 0.211236 -0.441936
v 0.388241 0.127653 -0.766947
v 0.210565 0.019672 0.854591
v 0.552736 0.134953 0.630808
v 0.754784 0.221075 0.231338
v 0.754778 0.233315 -0.228517
v 0.552737 0.175398 -0.625526
v 0.214926 0.097473 -0.851080
v 0.000000 0.446712 -0.000000
v 0.000000 0.056693 -0.873903
v 0.000000 -0.033309 0.897196
v 0.388245 0.040778 0.771328
v 0.673290 0.158732 0.446423
v 0.775264 0.207213 0.001053
v 0.673285 0.182995 -0.441936
v 0.388241 0.098965 -0.766947
v 0.210565 -0.009798 0.854591
v 0.552736 0.105694 0.630808
v 0.754784 0.191596 0.231338
v 0.754778 0.203843 -0.228517
v 0.552737 0.146456 -0.625526
v 0.214926 0.068048 -0.851080
v 0.000000 -0.000000 0.000000
v -0.171561 0.511774 0.365394
v -0.283537 0.546504 0.209098
v -0.318033 0.564495 0.000006
v -0.272303 0.556889 -0.189903
v -0.163011 0.525747 -0.328238
v -0.238726 0.093411 0.487202
v -0.411365 0.141230 0.280429
v -0.460905 0.163364 0.000045
v -0.398443 0.155092 -0.278575
v -0.235548 0.128622 -0.452048
v -0.388245 0.070059 0.771328
v -0.673290 0.187316 0.446423
v -0.775264 0.236693 0.001053
v -0.673285 0.211236 -0.441936
v -0.388241 0.127653 -0.766947
v -0.210565 0.019672 0.854591
v -0.552736 0.134953 0.630808
v -0.754784 0.221075 0.231338
v -0.754778 0.233315 -0.228517
v -0.552737 0.175398 -0.625526
v -0.214926 0.097473 -0.851080
v -0.388245 0.040778 0.771328
v -0.673290 0.158732 0.446423
v -0.775264 0.207213 0.001053
v -0.673285 0.182995 -0.441936
v -0.388241 0.098965 -0.766947
v -0.210565 -0.009798 0.854591
v -0.552736 0.105694 0.630808
v -0.754784 0.191596 0.231338
v -0.754778 0.203843 -0.228517
v -0.552737 0.146456 -0.625526
v -0.214926 0.068048 -0.851080
vn -0.0827 0.9943 -0.0676
vn -0.0000 0.9977 -0.0679
vn -0.0000 0.9977 -0.0678
vn 0.5423 0.3256 0.7745
vn 0.8373 0.3314 0.4349
vn 0.8587 0.3324 0.3902
vn -0.2143 0.9730 0.0856
vn -0.2135 0.9728 0.0895
vn -0.2215 0.9739 0.0501
vn -0.0000 0.9826 0.1858
vn -0.1115 0.9765 0.1846
vn -0.2047 0.9786 -0.0213
vn -0.2040 0.9787 -0.0225
vn -0.1892 0.9807 -0.0489
vn -0.1637 0.9746 0.1530
vn -0.1566 0.9750 0.1574
vn -0.2054 0.9704 0.1271
vn 0.8424 0.3462 -0.4129
vn 0.9416 0.3366 -0.0113
vn 0.8222 0.3474 -0.4508
vn -0.2493 0.9624 0.1079
vn -0.0000 0.9885 0.1510
vn -0.0016 0.9995 0.0329
vn -0.3316 0.9434 -0.0006
vn -0.3471 0.9372 0.0340
vn -0.3431 0.9378 0.0521
vn -0.0000 0.9955 -0.0946
vn -0.2362 0.9697 -0.0618
vn 0.7629 -0.0000 -0.6466
vn 0.8875 -0.0000 -0.4609
vn 0.7401 -0.0000 -0.6725
vn -0.0000 -0.0000 -1.0000
vn 0.2528 -0.0000 -0.9675
vn 0.5661 -0.0000 0.8243
vn 0.7353 -0.0000 0.6778
vn 0.7671 -0.0000 0.6416
vn 0.9771 -0.0000 0.2130
vn 1.0000 -0.0000 0.0013
vn 1.0000 -0.0000 -0.0017
vn 0.2752 -0.0000 -0.9614
vn 0.5416 -0.0000 -0.8407
vn 0.8984 -0.0000 0.4391
vn 0.9730 -0.0000 0.2309
vn 0.8955 -0.0000 -0.4450
vn 0.9738 -0.0000 -0.2273
vn 0.3207 -0.0000 0.9472
vn 0.5271 -0.0000 0.8498
vn 0.9759 -0.0000 -0.2180
vn 0.5672 -0.0000 -0.8236
vn -0.0000 -0.0000 1.0000
vn 0.2946 -0.0000 0.9556
vn 0.8866 -0.0000 0.4626
vn 0.2726 -0.9596 -0.0700
vn 0.2886 -0.9529 -0.0932
vn -0.0000 -0.9992 -0.0398
vn 0.2671 -0.9600 -0.0837
vn 0.1669 -0.9846 -0.0524
vn -0.0000 -0.9993 -0.0371
vn -0.0000 -0.9979 -0.0647
vn 0.1203 -0.9915 -0.0489
vn 0.2291 -0.9734 -0.0096
vn 0.2694 -0.9629 0.0126
vn 0.2654 -0.9641 0.0050
vn 0.2588 -0.9659 -0.0067
vn 0.2582 -0.9658 -0.0256
vn 0.2590 -0.9648 -0.0458
vn -0.2201 0.9751 0.0263
vn -0.2201 0.9751 0.0268
vn -0.2185 0.9758 0.0036
vn -0.0000 0.3284 0.9445
vn 0.4894 0.3255 0.8090
vn 0.9414 0.3367 -0.0198
vn 0.5011 0.3467 -0.7929
vn 0.4645 0.3457 -0.8153
vn -0.0000 0.3406 -0.9402
vn 0.0827 0.9943 -0.0676
vn -0.8373 0.3314 0.4349
vn -0.5423 0.3257 0.7745
vn -0.8587 0.3324 0.3902
vn 0.2215 0.9739 0.0501
vn 0.2135 0.9728 0.0894
vn 0.2143 0.9730 0.0856
vn 0.1115 0.9765 0.1846
vn 0.1892 0.9807 -0.0489
vn 0.2040 0.9787 -0.0226
vn 0.2047 0.9786 -0.0213
vn 0.2055 0.9704 0.1270
vn 0.1567 0.9750 0.1573
vn 0.1637 0.9746 0.1530
vn -0.8424 0.3462 -0.4129
vn -0.9416 0.3366 -0.0113
vn -0.9414 0.3367 -0.0198
vn 0.2493 0.9624 0.1079
vn 0.3316 0.9434 -0.0006
vn 0.3471 0.9372 0.0342
vn 0.3431 0.9378 0.0521
vn 0.2362 0.9697 -0.0618
vn -0.7630 -0.0000 -0.6464
vn -0.8875 -0.0000 -0.4609
vn -0.8955 -0.0000 -0.4450
vn -0.2528 -0.0000 -0.9675
vn -0.2752 -0.0000 -0.9614
vn -0.7350 -0.0000 0.6780
vn -0.5661 -0.0000 0.8243
vn -0.7671 -0.0000 0.6416
vn -1.0000 -0.0000 0.0013
vn -0.9770 -0.0000 0.2130
vn -1.0000 -0.0000 -0.0017
vn -0.5416 -0.0000 -0.8407
vn -0.5672 -0.0000 -0.8236
vn -0.9730 -0.0000 0.2310
vn -0.8984 -0.0000 0.4391
vn -0.9738 -0.0000 -0.2274
vn -0.9759 -0.0000 -0.2181
vn -0.5270 -0.0000 0.8498
vn -0.3207 -0.0000 0.9472
vn -0.7401 -0.0000 -0.6725
vn -0.2946 -0.0000 0.9556
vn -0.8866 -0.0000 0.4626
vn -0.2726 -0.9596 -0.0700
vn -0.2886 -0.9529 -0.0932
vn -0.2671 -0.9600 -0.0837
vn -0.1669 -0.9846 -0.0524
vn -0.1203 -0.9915 -0.0489
vn -0.2291 -0.9734 -0.0096
vn -0.2694 -0.9629 0.0126
vn -0.2654 -0.9641 0.0050
vn -0.2588 -0.9659 -0.0067
vn -0.2582 -0.9658 -0.0256
vn -0.2590 -0.9648 -0.0458
vn 0.2185 0.9758 0.0036
vn 0.2201 0.9751 0.0268
vn 0.2201 0.9751 0.0266
vn -0.4894 0.3255 0.8090
vn -0.5011 0.3467 -0.7929
vn -0.8222 0.3474 -0.4508
vn -0.4645 0.3457 -0.8153
vn -0.1390 0.9886 -0.0579
vn -0.1310 0.9896 -0.0593
vn -0.0000 0.3407 -0.9402
vn 0.1315 0.9895 -0.0592
vn 0.1390 0.9886 -0.0579
s 1
usemtl hat
f 27//1 15//2 8//3
f 3//4 11//5 4//6
f 11//7 18//8 24//9
f 9//10 16//10 22//11
f 13//12 20//13 26//14
f 10//15 17//16 23//17
f 6//18 12//19 13//20
f 7//21 1//22 28//23
f 4//24 5//25 28//23
f 5//25 6//26 28//23
f 2//27 3//28 28//23
f 6//26 7//21 28//23
f 3//28 4//24 28//23
f 26//29 34//30 40//31
f 15//32 41//33 29//32
f 17//34 37//35 23//36
f 24//37 33//38 19//39
f 27//40 35//41 41//33
f 18//42 38//43 24//37
f 20//44 39//45 34//30
f 22//46 31//47 17//34
f 25//48 33//38 39//45
f 21//49 40//31 35//41
f 16//50 36//51 22//46
f 23//36 32//52 18//42
f 32//53 37//54 42//55
f 31//56 36//57 42//55
f 36//57 30//58 42//55
f 42//55 29//59 41//60
f 31//56 42//55 37//54
f 41//60 35//61 42//55
f 35//61 40//62 42//55
f 40//62 34//63 42//55
f 34//63 39//64 42//55
f 39//64 33//65 42//55
f 33//65 38//66 42//55
f 38//66 32//53 42//55
f 12//67 19//68 25//69
f 2//70 10//71 3//4
f 4//6 12//19 5//72
f 7//73 13//20 14//74
f 14//74 1//75 7//73
f 8//3 15//2 63//76
f 49//77 43//78 44//79
f 60//80 54//81 49//82
f 58//83 16//10 9//10
f 62//84 56//85 51//86
f 59//87 53//88 48//89
f 46//90 50//91 45//92
f 47//93 28//23 1//22
f 44//94 28//23 45//95
f 45//95 28//23 46//96
f 2//27 28//23 43//97
f 46//96 28//23 47//93
f 43//97 28//23 44//94
f 62//98 67//99 56//100
f 15//32 74//101 63//102
f 70//103 53//104 59//105
f 66//106 60//107 55//108
f 63//102 68//109 57//110
f 71//111 54//112 60//107
f 56//100 72//113 61//114
f 64//115 58//116 53//104
f 61//114 66//106 55//108
f 57//110 73//117 62//98
f 69//118 16//50 58//116
f 65//119 59//105 54//112
f 65//120 42//55 70//121
f 64//122 42//55 69//123
f 69//123 42//55 30//58
f 42//55 74//124 29//59
f 64//122 70//121 42//55
f 74//124 42//55 68//125
f 68//125 42//55 73//126
f 73//126 42//55 67//127
f 67//127 42//55 72//128
f 72//128 42//55 66//129
f 66//129 42//55 71//130
f 71//130 42//55 65//120
f 61//131 55//132 50//133
f 48//134 2//70 43//78
f 50//91 44//79 45//92
f 47//135 51//136 46//90
f 1//75 52//137 47//135
f 8//3 14//138 27//1
f 14//138 21//139 27//1
f 3//4 10//71 11//5
f 19//68 12//67 24//9
f 12//67 11//7 24//9
f 17//16 10//15 22//11
f 10//15 9//10 22//11
f 21//139 14//138 26//14
f 14//138 13//12 26//14
f 18//8 11//7 23//17
f 11//7 10//15 23//17
f 6//18 5//72 12//19
f 26//29 20//44 34//30
f 15//32 27//40 41//33
f 17//34 31//47 37//35
f 24//37 38//43 33//38
f 27//40 21//49 35//41
f 18//42 32//52 38//43
f 20//44 25//48 39//45
f 22//46 36//51 31//47
f 25//48 19//39 33//38
f 21//49 26//29 40//31
f 16//50 30//50 36//51
f 23//36 37//35 32//52
f 20//13 13//12 25//69
f 13//12 12//67 25//69
f 2//70 9//70 10//71
f 4//6 11//5 12//19
f 7//73 6//18 13//20
f 14//74 8//140 1//75
f 57//141 52//142 63//76
f 52//142 8//3 63//76
f 49//77 48//134 43//78
f 49//82 50//133 60//80
f 50//133 55//132 60//80
f 9//10 48//89 58//83
f 48//89 53//88 58//83
f 51//86 52//142 62//84
f 52//142 57//141 62//84
f 48//89 49//82 59//87
f 49//82 54//81 59//87
f 46//90 51//136 50//91
f 62//98 73//117 67//99
f 15//32 29//32 74//101
f 70//103 64//115 53//104
f 66//106 71//111 60//107
f 63//102 74//101 68//109
f 71//111 65//119 54//112
f 56//100 67//99 72//113
f 64//115 69//118 58//116
f 61//114 72//113 66//106
f 57//110 68//109 73//117
f 69//118 30//50 16//50
f 65//119 70//103 59//105
f 50//133 51//86 61//131
f 51//86 56//85 61//131
f 48//134 9//70 2//70
f 50//91 49//77 44//79
f 47//135 52//137 51//136
f 1//75 8//140 52//137
