# Blender 4.0.2
# www.blender.org
mtllib hat_sport_cap.mtl
o hat_sport_cap
v 0.435055 0.163761 -0.037964
v 0.186340 -0.034895 -0.770709
v 0.203628 0.254201 0.203579
v 0.439977 0.046498 -0.477023
v 0.197089 0.391633 -0.090835
v 0.196838 0.317552 -0.532885
v 0.347327 -0.014680 -0.686331
v 0.344474 0.219560 0.104471
v 0.361147 0.328559 -0.095592
v 0.360816 0.242741 -0.508545
v 0.185042 0.181666 -0.708989
v 0.207539 0.362152 0.085222
v 0.469365 0.123963 -0.244852
v 0.206310 0.397717 -0.296870
v 0.309984 0.169671 -0.656705
v 0.321970 0.329889 0.043949
v 0.380806 0.308855 -0.277617
v 0.000000 -0.040143 -0.792592
v -0.000000 0.279058 0.251219
v 0.000000 0.429476 -0.084900
v 0.000000 0.339692 -0.545406
v 0.000000 0.195603 -0.741837
v -0.000000 0.392644 0.108444
v 0.000000 0.419172 -0.300403
v 0.451773 -0.000000 -0.000000
v 0.471102 -0.065441 -0.204496
v 0.350844 -0.215352 -0.657727
v 0.191843 -0.242364 -0.745420
v 0.000000 -0.249590 -0.768878
v 0.440131 -0.145768 -0.441754
v 0.451644 0.036110 -0.007252
v 0.336263 0.087896 0.154874
v 0.196475 0.128387 0.246397
v -0.000000 0.153609 0.309055
v 0.434301 0.005775 0.392069
v 0.433842 -0.023950 0.393271
v 0.387881 0.025706 0.517752
v 0.387295 -0.005585 0.520609
v -0.000000 0.153579 0.790424
v -0.000000 0.125891 0.791946
v 0.063964 0.406058 -0.298311
v 0.000000 0.418330 -0.238689
v 0.000000 0.438996 -0.305833
v 0.044939 0.396681 -0.340450
v 0.045298 0.409987 -0.255525
v 0.172797 0.130591 0.753149
v 0.302926 0.073632 0.655121
v 0.302971 0.043563 0.658680
v 0.173819 0.101866 0.754640
v -0.000000 -0.000000 0.000000
v 0.000000 0.396985 -0.359056
v -0.435055 0.163761 -0.037964
v -0.186340 -0.034895 -0.770709
v -0.203628 0.254201 0.203579
v -0.439977 0.046498 -0.477023
v -0.197089 0.391633 -0.090835
v -0.196838 0.317552 -0.532885
v -0.347327 -0.014680 -0.686331
v -0.344474 0.219560 0.104471
v -0.361147 0.328559 -0.095592
v -0.360816 0.242741 -0.508545
v -0.185042 0.181666 -0.708989
v -0.207539 0.362152 0.085222
v -0.469365 0.123963 -0.244852
v -0.206310 0.397717 -0.296870
v -0.309984 0.169671 -0.656705
v -0.321970 0.329889 0.043949
v -0.380806 0.308855 -0.277617
v -0.451773 -0.000000 -0.000000
v -0.471102 -0.065441 -0.204496
v -0.350844 -0.215352 -0.657727
v -0.191843 -0.242364 -0.745420
v -0.440131 -0.145768 -0.441754
v -0.451644 0.036110 -0.007252
v -0.336263 0.087896 0.154874
v -0.196475 0.128387 0.246397
v -0.434301 0.005775 0.392069
v -0.433842 -0.023950 0.393271
v -0.387883 0.025706 0.517752
v -0.387641 -0.005748 0.519542
v -0.063964 0.406058 -0.298311
v -0.044939 0.396681 -0.340450
v -0.045298 0.409987 -0.255525
v -0.172797 0.130591 0.753149
v -0.302926 0.073632 0.655121
v -0.302971 0.043563 0.658680
v -0.173819 0.101866 0.754640
vn 0.6890 0.7166 0.1084
vn 0.9729 0.2225 -0.0631
vn 0.7293 0.6703 -0.1372
vn 0.9075 0.3417 0.2445
vn 0.6182 0.6925 0.3719
vn 0.7357 0.3622 0.5723
vn 0.7464 0.0800 -0.6606
vn 0.2641 0.5348 -0.8027
vn 0.6177 0.4258 -0.6612
vn 0.3851 0.5196 0.7627
vn -0.0000 0.9095 0.4158
vn -0.0000 0.6064 0.7952
vn 0.2908 0.8673 0.4040
vn 0.2558 0.9647 0.0633
vn -0.0000 0.9840 -0.1783
vn -0.0000 0.9970 0.0778
vn 0.9476 0.1406 -0.2869
vn 0.7220 0.5813 -0.3751
vn 0.2760 0.9452 -0.1745
vn -0.0000 0.8897 -0.4565
vn -0.0000 0.5548 -0.8320
vn 0.2620 0.8622 -0.4336
vn 0.3025 -0.1114 -0.9466
vn -0.0000 0.0722 -0.9974
vn 0.2876 0.0656 -0.9555
vn 0.2805 0.9597 0.0156
vn 0.4416 0.8955 0.0562
vn 0.4537 0.8892 0.0596
vn 0.9987 -0.0038 -0.0515
vn 0.9672 -0.0363 -0.2515
vn 0.7716 -0.0801 -0.6310
vn 0.7344 0.2170 0.6431
vn 0.9669 0.1022 0.2338
vn 0.4324 0.3053 0.8484
vn -0.0000 1.0000 0.0008
vn 0.2076 0.9782 0.0044
vn 0.8856 0.0441 0.4624
vn 0.7514 0.0559 0.6574
vn 0.9195 0.0077 0.3931
vn 0.9896 0.0009 0.1439
vn 0.9902 0.0006 0.1399
vn 0.5053 0.8582 0.0901
vn 0.5073 0.8574 0.0872
vn 0.9985 0.0060 0.0552
vn 0.3612 0.9108 0.1999
vn -0.0000 0.9863 -0.1648
vn -0.0000 0.9558 0.2942
vn 0.3602 0.7893 -0.4972
vn 0.4662 0.8737 -0.1389
vn -0.0000 0.7849 -0.6196
vn -0.0000 -0.9517 0.3070
vn -0.0025 -0.9524 0.3050
vn 0.0011 -0.9501 0.3119
vn -0.0070 -0.9514 0.3078
vn -0.0000 -0.9912 0.1320
vn -0.0000 -0.9826 0.1856
vn 0.0046 -0.9493 0.3144
vn 0.3990 0.9159 0.0432
vn 0.4203 0.0664 0.9049
vn 0.7549 0.0689 0.6522
vn 0.4330 0.0712 0.8986
vn -0.0000 0.0573 0.9984
vn -0.6890 0.7166 0.1084
vn -0.9729 0.2225 -0.0631
vn -0.9075 0.3417 0.2445
vn -0.6182 0.6925 0.3719
vn -0.7357 0.3622 0.5723
vn -0.7464 0.0800 -0.6606
vn -0.2641 0.5348 -0.8027
vn -0.2876 0.0656 -0.9555
vn -0.3851 0.5196 0.7627
vn -0.2908 0.8673 0.4040
vn -0.2558 0.9647 0.0633
vn -0.6177 0.4258 -0.6612
vn -0.9476 0.1406 -0.2868
vn -0.7220 0.5813 -0.3751
vn -0.2760 0.9452 -0.1745
vn -0.2620 0.8622 -0.4336
vn -0.3025 -0.1114 -0.9466
vn -0.4416 0.8955 0.0562
vn -0.2805 0.9597 0.0156
vn -0.4537 0.8892 0.0596
vn -0.9987 -0.0038 -0.0515
vn -0.9672 -0.0363 -0.2515
vn -0.7344 0.2170 0.6431
vn -0.9669 0.1022 0.2338
vn -0.7716 -0.0801 -0.6310
vn -0.4324 0.3053 0.8484
vn -0.2076 0.9782 0.0044
vn -0.8845 0.0419 0.4646
vn -0.7513 0.0535 0.6578
vn -0.7549 0.0671 0.6524
vn -0.9202 0.0050 0.3914
vn -0.9896 0.0006 0.1441
vn -0.9901 0.0003 0.1400
vn -0.5073 0.8574 0.0872
vn -0.5053 0.8582 0.0901
vn -0.9985 0.0060 0.0552
vn -0.3612 0.9108 0.1999
vn -0.3602 0.7893 -0.4972
vn -0.4662 0.8737 -0.1389
vn -0.0011 -0.9501 0.3119
vn -0.0046 -0.9493 0.3144
vn 0.0025 -0.9524 0.3050
vn -0.3990 0.9159 0.0432
vn -0.0953 -0.9944 0.0446
vn -0.2170 -0.9644 0.1511
vn -0.4203 0.0664 0.9049
vn -0.4330 0.0712 0.8986
vn -0.0000 0.0574 0.9984
vn 0.1785 -0.9688 0.1719
vn 0.2728 -0.9436 0.1879
vn 0.2164 -0.9646 0.1508
vn 0.0953 -0.9945 0.0445
vn -0.2730 -0.9435 0.1880
vn -0.1785 -0.9688 0.1719
vn -0.0000 -0.9876 0.1570
vn 0.0070 -0.9514 0.3078
vn -0.0000 -0.1151 -0.9934
vn -0.0000 0.3644 0.9312
vn -0.0000 1.0000 0.0009
vn -0.7293 0.6703 -0.1372
s 1
usemtl cap
f 9//1 13//2 17//3
f 1//4 16//5 8//6
f 7//7 11//8 15//9
f 3//10 23//11 19//12
f 12//13 8//6 16//5
f 5//14 24//15 20//16
f 4//17 15//9 10//18
f 13//2 10//18 17//3
f 14//19 9//1 17//3
f 12//13 20//16 23//11
f 21//20 11//8 22//21
f 5//14 16//5 9//1
f 6//22 15//9 11//8
f 6//22 24//15 14//19
f 10//18 14//19 17//3
f 28//23 18//24 2//25
f 33//26 37//27 32//28
f 4//17 26//29 30//30
f 7//7 30//30 27//31
f 1//4 32//32 31//33
f 2//25 27//31 28//23
f 2//25 22//21 11//8
f 3//10 32//32 8//6
f 19//12 33//34 3//10
f 34//35 46//36 33//26
f 37//37 48//38 38//39
f 35//40 38//39 36//41
f 32//28 35//42 31//43
f 25//44 35//40 36//41
f 31//33 25//44 26//29
f 26//29 13//2 31//33
f 13//2 1//4 31//33
f 45//45 43//46 42//47
f 44//48 43//46 41//49
f 44//48 51//50 43//46
f 45//45 41//49 43//46
f 29//51 28//52 30//53
f 28//52 27//54 30//53
f 25//55 50//56 26//57
f 30//53 26//57 50//56
f 46//36 47//58 33//26
f 49//59 47//60 46//61
f 46//61 40//62 49//59
f 32//28 37//27 35//42
f 60//63 64//64 52//65
f 67//66 52//65 59//67
f 58//68 62//69 53//70
f 23//11 54//71 19//12
f 63//72 59//67 54//71
f 24//15 56//73 20//16
f 66//74 55//75 61//76
f 64//64 61//76 55//75
f 65//77 60//63 56//73
f 63//72 20//16 56//73
f 21//20 62//69 57//78
f 67//66 56//73 60//63
f 66//74 57//78 62//69
f 24//15 57//78 65//77
f 61//76 65//77 57//78
f 18//24 72//79 53//70
f 79//80 76//81 75//82
f 70//83 55//75 73//84
f 58//68 73//84 55//75
f 75//85 52//65 74//86
f 71//87 53//70 72//79
f 22//21 53//70 62//69
f 75//85 54//71 59//67
f 76//88 19//12 54//71
f 84//89 34//35 76//81
f 79//90 86//91 85//92
f 80//93 77//94 78//95
f 75//82 74//96 77//97
f 69//98 77//94 74//86
f 74//86 70//83 69//98
f 70//83 74//86 64//64
f 64//64 74//86 52//65
f 83//99 42//47 43//46
f 82//100 81//101 43//46
f 82//100 43//46 51//50
f 83//99 43//46 81//101
f 73//102 50//56 70//103
f 50//56 69//55 70//103
f 29//51 50//56 73//102
f 72//104 29//51 73//102
f 84//89 76//81 85//105
f 50//56 36//106 38//107
f 85//92 87//108 84//109
f 84//109 40//62 39//110
f 75//82 77//97 79//80
f 50//56 87//111 86//112
f 86//112 80//113 50//56
f 80//113 78//114 50//56
f 78//114 69//55 50//56
f 50//56 25//55 36//106
f 38//107 48//115 50//56
f 49//116 50//56 48//115
f 49//116 40//117 50//56
f 50//56 40//117 87//111
f 73//102 71//118 72//104
f 9//1 1//4 13//2
f 1//4 9//1 16//5
f 7//7 2//25 11//8
f 3//10 12//13 23//11
f 12//13 3//10 8//6
f 5//14 14//19 24//15
f 4//17 7//7 15//9
f 13//2 4//17 10//18
f 14//19 5//14 9//1
f 12//13 5//14 20//16
f 21//20 6//22 11//8
f 5//14 12//13 16//5
f 6//22 10//18 15//9
f 6//22 21//20 24//15
f 10//18 6//22 14//19
f 28//23 29//119 18//24
f 33//26 47//58 37//27
f 4//17 13//2 26//29
f 7//7 4//17 30//30
f 1//4 8//6 32//32
f 2//25 7//7 27//31
f 2//25 18//24 22//21
f 3//10 33//34 32//32
f 19//12 34//120 33//34
f 34//35 39//121 46//36
f 37//37 47//60 48//38
f 35//40 37//37 38//39
f 25//44 31//33 35//40
f 49//59 48//38 47//60
f 46//61 39//110 40//62
f 60//63 68//122 64//64
f 67//66 60//63 52//65
f 58//68 66//74 62//69
f 23//11 63//72 54//71
f 63//72 67//66 59//67
f 24//15 65//77 56//73
f 66//74 58//68 55//75
f 64//64 68//122 61//76
f 65//77 68//122 60//63
f 63//72 23//11 20//16
f 21//20 22//21 62//69
f 67//66 63//72 56//73
f 66//74 61//76 57//78
f 24//15 21//20 57//78
f 61//76 68//122 65//77
f 18//24 29//119 72//79
f 79//80 85//105 76//81
f 70//83 64//64 55//75
f 58//68 71//87 73//84
f 75//85 59//67 52//65
f 71//87 58//68 53//70
f 22//21 18//24 53//70
f 75//85 76//88 54//71
f 76//88 34//120 19//12
f 84//89 39//121 34//35
f 79//90 80//93 86//91
f 80//93 79//90 77//94
f 69//98 78//95 77//94
f 29//51 30//53 50//56
f 85//92 86//91 87//108
f 84//109 87//108 40//62
