# Blender 4.0.2
# www.blender.org
mtllib hat_pirat.mtl
o hat_pirat
v -0.056775 0.334333 0.913203
v -0.540305 0.514515 -0.198586
v -0.762404 0.332197 -0.495514
v -0.663094 0.449971 -0.381912
v -0.164440 0.482291 0.522098
v -0.099582 0.444704 0.725903
v -0.360192 0.476594 -0.483613
v -0.711587 0.312407 -0.559805
v -0.557095 0.432815 -0.508967
v 0.000000 -0.000000 0.000000
v -0.888913 0.105818 -0.571057
v -0.830129 0.103461 -0.619120
v -0.868831 0.059188 -0.594728
v 0.000000 0.063858 1.078217
v -0.037199 0.121240 1.050300
v 0.888567 0.094018 -0.566676
v 0.064045 0.329069 0.924301
v 0.537711 0.484464 -0.167269
v 0.757174 0.325191 -0.478022
v 0.676569 0.431334 -0.344276
v 0.177726 0.502191 0.503415
v 0.112209 0.467795 0.724121
v 0.318517 0.480126 -0.479770
v 0.670034 0.305081 -0.547394
v 0.534679 0.410852 -0.507292
v 0.828697 0.107213 -0.617334
v 0.874921 0.054020 -0.594002
v 0.043702 0.104707 1.049501
v -0.026558 0.337474 0.907961
v -0.509198 0.501262 -0.205068
v -0.741995 0.326178 -0.515182
v -0.643092 0.450288 -0.407154
v -0.129721 0.493085 0.514898
v -0.065199 0.456357 0.726666
v -0.359728 0.475554 -0.457106
v -0.727981 0.306952 -0.535659
v -0.566130 0.433009 -0.485748
v 0.000000 0.444491 -0.052181
v -0.855530 0.103583 -0.591686
v 0.001204 0.100192 1.068529
v 0.032706 0.328576 0.930185
v 0.512117 0.475714 -0.174012
v 0.736312 0.320359 -0.496185
v 0.653567 0.430292 -0.364180
v 0.151078 0.505282 0.497391
v 0.090719 0.461612 0.710531
v 0.325235 0.480237 -0.452345
v 0.677029 0.300881 -0.516373
v 0.552078 0.414348 -0.471337
v 0.857333 0.106181 -0.589412
v 0.004148 0.491091 -0.452974
v 0.005433 0.485340 -0.483149
v 0.580585 0.118518 -0.107846
v 0.603484 0.156674 -0.105376
v 0.365563 0.178054 0.349868
v 0.326352 0.114840 0.307644
v 0.340690 0.508262 0.150265
v 0.321260 0.509150 0.131152
v -0.570268 0.195797 -0.000970
v -0.533866 0.122898 0.007440
v -0.326790 0.174509 0.475952
v -0.308692 0.120441 0.450463
v -0.352941 0.508645 0.132688
v -0.323466 0.514235 0.119133
v 0.213597 0.136627 -0.578228
v 0.247253 0.070780 -0.544338
v -0.012060 0.318638 -0.451182
v -0.027404 0.182465 -0.456040
v 0.324232 0.195207 0.195150
v -0.375854 0.151341 0.226275
v -0.355574 0.068658 -0.532083
v -0.354573 0.126752 -0.563344
v 0.206554 0.538413 -0.376268
v 0.324629 0.536622 -0.258484
v 0.275298 0.156606 -0.501300
v 0.443637 0.269313 -0.329751
v 0.509030 0.164346 -0.076816
v 0.253023 0.175135 0.384833
v 0.375457 0.533080 -0.071171
v 0.322496 0.528930 0.115208
v 0.187444 0.524656 0.258524
v -0.000036 0.526102 -0.448831
v 0.000563 0.283473 0.471940
v 0.000039 0.528449 0.309935
v -0.192699 0.517560 -0.401008
v -0.330529 0.516956 -0.262207
v -0.270908 0.159711 -0.495247
v -0.435689 0.270879 -0.326931
v -0.527441 0.145129 -0.064145
v -0.299652 0.149908 0.367563
v -0.376430 0.529626 -0.071042
v -0.305275 0.537217 0.133965
v -0.184287 0.535146 0.251813
v -0.000679 0.499884 -0.046382
v 0.352549 0.270218 0.133130
v 0.374425 0.352148 -0.287820
v 0.226765 0.272330 -0.436433
v 0.213242 0.290086 0.311984
v 0.437438 0.273923 -0.068341
v 0.000400 0.367884 0.383924
v -0.000192 0.220730 -0.503382
v -0.378757 0.259877 0.160070
v -0.374338 0.343820 -0.288620
v -0.224823 0.260408 -0.448219
v -0.212374 0.289691 0.309895
v -0.440671 0.266103 -0.067357
vn 0.0272 -0.9861 -0.1639
vn 0.1032 0.2170 -0.9707
vn 0.0424 0.2323 -0.9717
vn -0.8256 0.3552 0.4384
vn -0.0999 -0.9944 0.0331
vn -0.2243 -0.9574 0.1821
vn -0.2753 -0.9582 0.0779
vn 0.0023 -0.9989 0.0468
vn -0.0142 -0.9872 -0.1590
vn 0.8570 0.2338 0.4592
vn 0.8582 0.1873 0.4779
vn 0.8368 0.2903 0.4642
vn 0.2397 -0.9429 0.2312
vn 0.8318 0.2870 0.4752
vn 0.2668 -0.9595 0.0900
vn -0.0237 -0.9976 0.0655
vn 0.8390 -0.2612 -0.4773
vn 0.8343 -0.2726 -0.4791
vn 0.8599 -0.2622 -0.4379
vn 0.8924 -0.2079 -0.4005
vn 0.8949 -0.1735 -0.4112
vn -0.0038 0.9999 -0.0104
vn -0.2918 0.9468 -0.1356
vn -0.4745 0.8444 0.2485
vn 0.2628 0.9483 -0.1777
vn 0.0002 0.8389 -0.5443
vn -0.0531 0.9545 0.2933
vn 0.4657 0.8500 0.2462
vn -0.0023 -0.0574 0.9983
vn -0.1113 -0.2081 0.9718
vn -0.1202 -0.1680 0.9784
vn -0.0870 0.6789 0.7291
vn -0.2119 0.8839 0.4168
vn -0.2231 0.8930 0.3909
vn -0.2517 0.9490 0.1899
vn -0.2568 0.9535 0.1578
vn -0.0569 0.9970 0.0517
vn -0.0474 0.9979 0.0445
vn -0.1345 0.9166 -0.3765
vn 0.0739 0.9887 -0.1306
vn -0.1972 0.8966 -0.3964
vn -0.4833 0.6256 -0.6124
vn -0.4833 0.6093 -0.6286
vn -0.6327 0.6843 -0.3625
vn -0.4125 0.9018 -0.1289
vn -0.3809 0.9179 -0.1116
vn -0.0929 0.9939 -0.0601
vn -0.1011 0.9932 -0.0572
vn -0.5987 0.2319 -0.7666
vn -0.4734 0.4803 -0.7384
vn -0.5646 0.5216 -0.6396
vn -0.6791 0.5425 -0.4945
vn -0.0053 0.5717 0.8204
vn 0.1058 0.2529 0.9617
vn 0.1028 0.5571 0.8241
vn 0.0197 0.7115 0.7024
vn -0.1534 0.9361 0.3166
vn 0.1054 0.6328 0.7671
vn -0.0246 0.9976 0.0644
vn -0.1605 0.9192 0.3596
vn 0.0002 0.9994 -0.0343
vn -0.0659 0.9785 -0.1955
vn -0.0270 0.9973 -0.0678
vn -0.0565 0.9741 -0.2190
vn 0.1356 0.9187 -0.3710
vn 0.4717 0.6820 -0.5589
vn 0.1122 0.9262 -0.3601
vn 0.6024 0.5351 -0.5923
vn 0.4876 0.6636 -0.5673
vn -0.0064 0.9957 -0.0927
vn -0.0053 0.9956 -0.0931
vn 0.6181 0.7207 -0.3140
vn 0.4221 0.8868 -0.1879
vn 0.6171 0.7233 -0.3099
vn 0.3889 0.9035 -0.1801
vn 0.1488 0.9776 -0.1487
vn 0.6552 0.2828 -0.7005
vn 0.6546 0.6411 -0.4006
vn 0.2261 0.5025 0.8345
vn -0.0915 0.6897 0.7183
vn -0.6526 0.6355 -0.4126
vn 0.6134 0.4777 -0.6290
vn 0.0645 -0.1631 0.9845
vn -0.0064 0.0110 0.9999
vn -0.8473 0.3261 0.4191
vn -0.8447 0.3320 0.4198
vn 0.8654 0.2982 0.4027
vn 0.8482 0.3022 0.4350
vn 0.8735 0.3420 0.3466
vn 0.8141 0.2613 0.5187
vn 0.8889 0.1908 0.4164
vn 0.8991 0.1512 0.4107
vn 0.8816 0.2903 0.3721
vn -0.8451 0.3261 0.4235
vn -0.8161 0.3733 0.4412
vn -0.8221 0.3538 0.4460
vn -0.8369 0.3542 0.4173
vn -0.8642 0.2137 0.4556
vn -0.8614 0.2578 0.4377
vn -0.8505 0.3635 0.3802
vn 0.1188 0.9827 -0.1424
vn -0.0408 0.2947 -0.9547
vn -0.0465 0.3003 -0.9527
vn -0.0228 0.2726 -0.9619
vn 0.1002 0.2379 -0.9661
vn 0.0326 0.2226 -0.9744
vn 0.1027 -0.9936 0.0477
vn -0.0395 0.9967 0.0711
vn -0.8406 0.3865 0.3796
vn -0.9314 -0.0859 -0.3538
vn -0.9308 -0.1046 -0.3502
vn -0.8857 -0.1295 -0.4458
vn 0.0640 0.9837 -0.1678
vn 0.8744 -0.3270 -0.3585
vn 0.8814 -0.3020 -0.3631
vn 0.8387 -0.2640 -0.4764
vn 0.8396 -0.2614 -0.4762
vn -0.0462 0.2997 -0.9529
vn -0.0851 -0.1514 0.9848
vn -0.1081 -0.2317 0.9668
vn 0.0727 -0.2785 0.9577
vn -0.0423 -0.4085 0.9118
vn -0.0185 -0.0336 0.9993
vn 0.0963 -0.2351 0.9672
vn -0.0084 0.2488 -0.9685
vn -0.0099 0.2783 -0.9604
vn 0.1106 0.2311 -0.9666
vn -0.9277 -0.1706 -0.3322
vn -0.9228 -0.1873 -0.3366
vn -0.8742 -0.1049 -0.4741
vn -0.8412 -0.1066 -0.5301
vn -0.8233 -0.1788 -0.5388
vn -0.7752 0.1527 -0.6130
vn 0.8516 -0.2577 -0.4565
vn -0.8167 -0.2313 -0.5287
vn 0.1270 0.9885 -0.0823
vn 0.3533 0.3508 -0.8673
vn 0.7319 0.4425 -0.5182
vn -0.0395 0.9889 0.1431
vn 0.5995 0.3959 0.6956
vn 0.0453 0.5274 0.8484
vn 0.9133 0.3744 0.1602
vn 0.4092 0.9064 0.1050
vn 0.7777 0.5092 0.3688
vn -0.3324 0.3432 -0.8785
vn -0.1734 0.9834 -0.0541
vn -0.8102 0.3726 -0.4525
vn -0.4846 0.4642 0.7414
vn -0.8677 0.4800 0.1291
vn -0.4107 0.9041 0.1178
vn -0.0367 0.9976 -0.0584
vn -0.0799 0.9966 -0.0193
vn -0.0059 0.9999 -0.0105
vn 0.0355 0.1987 -0.9794
vn 0.0025 0.3558 -0.9346
vn -0.0542 0.9964 0.0648
vn 0.0003 0.9988 0.0496
vn 0.0294 0.9964 -0.0799
vn 0.0544 0.9985 -0.0042
vn -0.0865 0.9960 0.0208
vn -0.0731 0.9955 0.0603
vn 0.0824 0.9951 -0.0552
vn 0.0830 0.9944 -0.0657
vn -0.0720 0.9949 0.0710
vn 0.0719 0.9947 -0.0733
vn -0.8183 0.2547 0.5152
vn -0.5258 0.2814 0.8027
vn -0.9657 0.2565 0.0413
vn -0.0143 0.3304 0.9437
vn -0.4538 0.2188 -0.8638
vn -0.8423 0.2520 -0.4764
vn -0.8142 0.5157 0.2666
vn 0.8540 0.1802 0.4881
vn 0.5667 0.2503 0.7850
vn 0.9730 0.2236 0.0569
vn 0.8324 0.2586 -0.4901
vn 0.4824 0.2279 -0.8458
vn 0.0948 0.9002 -0.4251
vn -0.0931 0.8981 -0.4297
vn -0.3952 0.8829 0.2534
vn 0.3626 0.8947 0.2607
s 1
usemtl hat
f 71//1 12//2 72//3
f 59//4 13//5 60//6
f 62//7 60//6 10//8
f 10//8 71//1 66//9
f 19//10 20//11 54//12
f 53//13 16//14 54//12
f 56//15 14//16 10//8
f 32//17 30//18 70//19
f 29//20 40//21 70//19
f 38//22 39//23 70//24
f 38//22 50//25 68//26
f 38//22 40//27 69//28
f 67//29 36//30 39//31
f 1//32 34//33 6//34
f 6//34 33//35 5//36
f 5//36 64//37 63//38
f 4//39 30//40 32//41
f 3//42 32//41 31//43
f 8//44 37//45 9//46
f 9//46 35//47 7//48
f 13//49 11//50 39//51
f 12//52 13//49 39//51
f 15//53 14//54 40//55
f 17//56 46//57 41//58
f 21//59 46//57 22//60
f 57//61 42//62 58//63
f 18//64 44//65 42//62
f 19//66 44//65 20//67
f 19//66 50//68 43//69
f 7//48 51//70 52//71
f 24//72 49//73 48//74
f 25//75 47//76 49//73
f 27//77 26//78 50//68
f 14//54 28//79 40//55
f 15//53 29//80 1//32
f 3//42 39//51 11//50
f 12//52 36//81 8//44
f 28//79 41//58 40//55
f 26//78 48//74 50//68
f 16//82 27//77 50//68
f 47//83 51//84 67//29
f 3//85 11//86 59//4
f 55//87 57//88 21//89
f 20//11 18//90 54//12
f 17//91 28//92 55//87
f 22//93 55//87 21//89
f 18//90 57//88 54//12
f 4//94 3//85 59//4
f 63//95 2//96 59//4
f 2//96 4//94 59//4
f 61//97 15//98 1//99
f 61//97 1//99 6//100
f 23//101 51//70 47//76
f 25//102 24//103 65//104
f 9//105 7//106 72//3
f 56//15 54//12 55//87
f 57//88 55//87 54//12
f 56//15 28//92 14//16
f 54//12 16//14 19//10
f 10//8 27//107 53//13
f 53//13 56//15 10//8
f 22//93 17//91 55//87
f 57//61 45//108 21//59
f 61//97 60//6 62//7
f 6//100 5//109 61//97
f 15//98 62//7 14//16
f 13//5 10//8 60//6
f 10//8 14//16 62//7
f 40//110 41//111 69//112
f 63//38 30//40 2//113
f 59//4 61//97 63//95
f 61//97 5//109 63//95
f 33//114 34//115 70//19
f 70//19 39//116 31//117
f 34//115 29//20 70//19
f 66//9 26//118 27//107
f 51//84 35//119 67//29
f 35//119 37//120 67//29
f 37//120 36//30 67//29
f 67//29 48//121 47//83
f 48//121 49//122 47//83
f 68//123 67//29 39//31
f 50//124 48//121 67//29
f 26//118 65//104 24//103
f 52//125 23//126 65//104
f 25//102 65//104 23//126
f 8//127 9//105 72//3
f 7//106 52//125 72//3
f 52//125 65//104 72//3
f 66//9 27//107 10//8
f 39//23 38//22 68//26
f 68//123 50//124 67//29
f 50//25 38//22 69//28
f 46//128 45//129 69//112
f 69//112 58//130 42//131
f 43//132 42//131 44//133
f 41//111 46//128 69//112
f 69//112 42//131 43//132
f 45//129 58//130 69//112
f 40//27 38//22 70//24
f 32//17 70//19 31//117
f 70//19 64//134 33//114
f 30//18 64//134 70//19
f 50//135 69//112 43//132
f 71//1 65//104 66//9
f 12//2 8//127 72//3
f 10//8 13//5 71//1
f 76//136 97//137 96//138
f 83//139 98//140 100//141
f 99//142 76//136 96//138
f 77//143 99//142 95//144
f 104//145 88//146 103//147
f 105//148 83//139 100//141
f 106//149 88//146 89//150
f 81//151 80//152 94//153
f 82//154 97//137 101//155
f 82//156 85//157 94//153
f 84//158 81//151 94//153
f 85//157 86//159 94//153
f 79//160 74//161 94//153
f 91//162 92//163 94//153
f 73//164 82//156 94//153
f 74//161 73//164 94//153
f 92//163 93//165 94//153
f 93//165 84//158 94//153
f 80//152 79//160 94//153
f 86//159 91//162 94//153
f 92//166 105//148 93//167
f 91//168 103//147 106//149
f 93//167 100//141 84//169
f 85//170 103//147 86//171
f 91//168 102//172 92//166
f 98//140 80//173 81//174
f 82//154 104//145 85//170
f 79//175 96//138 74//176
f 100//141 81//174 84//169
f 96//138 73//177 74//176
f 95//144 79//175 80//173
f 101//155 75//178 87//179
f 102//172 89//150 90//180
f 71//1 13//5 12//2
f 59//4 11//86 13//5
f 53//13 27//107 16//14
f 1//32 29//80 34//33
f 6//34 34//33 33//35
f 5//36 33//35 64//37
f 4//39 2//113 30//40
f 3//42 4//39 32//41
f 8//44 36//81 37//45
f 9//46 37//45 35//47
f 17//56 22//60 46//57
f 21//59 45//108 46//57
f 57//61 18//64 42//62
f 18//64 20//67 44//65
f 19//66 43//69 44//65
f 19//66 16//82 50//68
f 7//48 35//47 51//70
f 24//72 25//75 49//73
f 25//75 23//101 47//76
f 15//53 40//55 29//80
f 3//42 31//43 39//51
f 12//52 39//51 36//81
f 28//79 17//56 41//58
f 26//78 24//72 48//74
f 23//101 52//71 51//70
f 56//15 53//13 54//12
f 56//15 55//87 28//92
f 57//61 58//63 45//108
f 61//97 59//4 60//6
f 15//98 61//97 62//7
f 63//38 64//37 30//40
f 66//9 65//104 26//118
f 71//1 72//3 65//104
f 76//136 75//178 97//137
f 83//139 78//181 98//140
f 99//142 77//143 76//136
f 95//144 98//140 78//181
f 78//181 77//143 95//144
f 104//145 87//179 88//146
f 105//148 90//180 83//139
f 106//149 103//147 88//146
f 82//154 73//177 97//137
f 92//166 102//172 105//148
f 91//168 86//171 103//147
f 93//167 105//148 100//141
f 85//170 104//145 103//147
f 91//168 106//149 102//172
f 98//140 95//144 80//173
f 82//154 101//155 104//145
f 79//175 99//142 96//138
f 100//141 98//140 81//174
f 96//138 97//137 73//177
f 95//144 99//142 79//175
f 101//155 97//137 75//178
f 87//179 104//145 101//155
f 90//180 105//148 102//172
f 102//172 106//149 89//150
